<mxfile host="65bd71144e">
    <diagram id="C8Fq0JRp3mWL9hx50dBu" name="ページ1">
        <mxGraphModel dx="1305" dy="645" grid="1" gridSize="10" guides="1" tooltips="1" connect="1" arrows="1" fold="1" page="1" pageScale="1" pageWidth="827" pageHeight="1169" math="0" shadow="0">
            <root>
                <mxCell id="0"/>
                <mxCell id="1" parent="0"/>
                <mxCell id="12" value="Pipe" style="ellipse;whiteSpace=wrap;html=1;" parent="1" vertex="1">
                    <mxGeometry x="790" y="120" width="80" height="80" as="geometry"/>
                </mxCell>
                <mxCell id="13" value="Pipe" style="ellipse;whiteSpace=wrap;html=1;" parent="1" vertex="1">
                    <mxGeometry x="580" y="120" width="80" height="80" as="geometry"/>
                </mxCell>
                <mxCell id="14" value="Pipe" style="ellipse;whiteSpace=wrap;html=1;" parent="1" vertex="1">
                    <mxGeometry x="340" y="120" width="80" height="80" as="geometry"/>
                </mxCell>
                <mxCell id="15" value="Pipe" style="ellipse;whiteSpace=wrap;html=1;" parent="1" vertex="1">
                    <mxGeometry x="140" y="120" width="80" height="80" as="geometry"/>
                </mxCell>
                <mxCell id="18" value="cmd" style="whiteSpace=wrap;html=1;" parent="1" vertex="1">
                    <mxGeometry x="890" y="130" width="120" height="60" as="geometry"/>
                </mxCell>
                <mxCell id="19" value="cmd" style="whiteSpace=wrap;html=1;" parent="1" vertex="1">
                    <mxGeometry x="660" y="130" width="120" height="60" as="geometry"/>
                </mxCell>
                <mxCell id="20" value="cmd" style="whiteSpace=wrap;html=1;" parent="1" vertex="1">
                    <mxGeometry x="420" y="240" width="120" height="60" as="geometry"/>
                </mxCell>
                <mxCell id="21" value="cmd" style="whiteSpace=wrap;html=1;" parent="1" vertex="1">
                    <mxGeometry x="220" y="240" width="120" height="60" as="geometry"/>
                </mxCell>
                <mxCell id="22" value="cmd" style="whiteSpace=wrap;html=1;" parent="1" vertex="1">
                    <mxGeometry x="20" y="240" width="120" height="60" as="geometry"/>
                </mxCell>
            </root>
        </mxGraphModel>
    </diagram>
</mxfile>